G75*
%MOIN*%
%OFA0B0*%
%FSLAX25Y25*%
%IPPOS*%
%LPD*%
%AMOC8*
5,1,8,0,0,1.08239X$1,22.5*
%
%ADD10C,0.13800*%
%ADD11R,0.03300X0.05800*%
%ADD12C,0.00500*%
%ADD13C,0.08200*%
%ADD14C,0.03300*%
D10*
X0043342Y0118750D03*
X0123342Y0118750D03*
X0145342Y0118750D03*
X0225342Y0118750D03*
X0247342Y0118750D03*
X0327342Y0118750D03*
X0349342Y0118750D03*
X0429342Y0118750D03*
X0451342Y0118750D03*
X0531342Y0118750D03*
X0531342Y0220750D03*
X0451342Y0220750D03*
X0429342Y0220750D03*
X0349342Y0220750D03*
X0327342Y0220750D03*
X0247342Y0220750D03*
X0225342Y0220750D03*
X0145342Y0220750D03*
X0123342Y0220750D03*
X0043342Y0220750D03*
X0043342Y0322750D03*
X0123342Y0322750D03*
X0145342Y0322750D03*
X0225342Y0322750D03*
X0247342Y0322750D03*
X0327342Y0322750D03*
X0349342Y0322750D03*
X0429342Y0322750D03*
X0451342Y0322750D03*
X0531342Y0322750D03*
X0531342Y0424750D03*
X0451342Y0424750D03*
X0429342Y0424750D03*
X0349342Y0424750D03*
X0327342Y0424750D03*
X0247342Y0424750D03*
X0225342Y0424750D03*
X0145342Y0424750D03*
X0123342Y0424750D03*
X0043342Y0424750D03*
X0043342Y0526750D03*
X0123342Y0526750D03*
X0145342Y0526750D03*
X0225342Y0526750D03*
X0247342Y0526750D03*
X0327342Y0526750D03*
X0349342Y0526750D03*
X0429342Y0526750D03*
X0451342Y0526750D03*
X0531342Y0526750D03*
D11*
X0046342Y0053750D03*
X0050342Y0053750D03*
X0079342Y0093750D03*
X0083342Y0093750D03*
X0087342Y0093750D03*
X0050342Y0155750D03*
X0046342Y0155750D03*
X0079342Y0195750D03*
X0083342Y0195750D03*
X0087342Y0195750D03*
X0050342Y0257750D03*
X0046342Y0257750D03*
X0079342Y0297750D03*
X0083342Y0297750D03*
X0087342Y0297750D03*
X0050342Y0359750D03*
X0046342Y0359750D03*
X0079342Y0399750D03*
X0083342Y0399750D03*
X0087342Y0399750D03*
X0050342Y0461750D03*
X0046342Y0461750D03*
X0079342Y0501750D03*
X0083342Y0501750D03*
X0087342Y0501750D03*
X0148342Y0461750D03*
X0152342Y0461750D03*
X0181342Y0501750D03*
X0185342Y0501750D03*
X0189342Y0501750D03*
X0250342Y0461750D03*
X0254342Y0461750D03*
X0283342Y0501750D03*
X0287342Y0501750D03*
X0291342Y0501750D03*
X0352342Y0461750D03*
X0356342Y0461750D03*
X0385342Y0501750D03*
X0389342Y0501750D03*
X0393342Y0501750D03*
X0454342Y0461750D03*
X0458342Y0461750D03*
X0487342Y0501750D03*
X0491342Y0501750D03*
X0495342Y0501750D03*
X0495342Y0399750D03*
X0491342Y0399750D03*
X0487342Y0399750D03*
X0458342Y0359750D03*
X0454342Y0359750D03*
X0393342Y0399750D03*
X0389342Y0399750D03*
X0385342Y0399750D03*
X0356342Y0359750D03*
X0352342Y0359750D03*
X0291342Y0399750D03*
X0287342Y0399750D03*
X0283342Y0399750D03*
X0254342Y0359750D03*
X0250342Y0359750D03*
X0189342Y0399750D03*
X0185342Y0399750D03*
X0181342Y0399750D03*
X0152342Y0359750D03*
X0148342Y0359750D03*
X0181342Y0297750D03*
X0185342Y0297750D03*
X0189342Y0297750D03*
X0152342Y0257750D03*
X0148342Y0257750D03*
X0181342Y0195750D03*
X0185342Y0195750D03*
X0189342Y0195750D03*
X0152342Y0155750D03*
X0148342Y0155750D03*
X0181342Y0093750D03*
X0185342Y0093750D03*
X0189342Y0093750D03*
X0152342Y0053750D03*
X0148342Y0053750D03*
X0250342Y0053750D03*
X0254342Y0053750D03*
X0283342Y0093750D03*
X0287342Y0093750D03*
X0291342Y0093750D03*
X0352342Y0053750D03*
X0356342Y0053750D03*
X0385342Y0093750D03*
X0389342Y0093750D03*
X0393342Y0093750D03*
X0454342Y0053750D03*
X0458342Y0053750D03*
X0487342Y0093750D03*
X0491342Y0093750D03*
X0495342Y0093750D03*
X0458342Y0155750D03*
X0454342Y0155750D03*
X0487342Y0195750D03*
X0491342Y0195750D03*
X0495342Y0195750D03*
X0458342Y0257750D03*
X0454342Y0257750D03*
X0487342Y0297750D03*
X0491342Y0297750D03*
X0495342Y0297750D03*
X0393342Y0297750D03*
X0389342Y0297750D03*
X0385342Y0297750D03*
X0356342Y0257750D03*
X0352342Y0257750D03*
X0291342Y0297750D03*
X0287342Y0297750D03*
X0283342Y0297750D03*
X0254342Y0257750D03*
X0250342Y0257750D03*
X0283342Y0195750D03*
X0287342Y0195750D03*
X0291342Y0195750D03*
X0254342Y0155750D03*
X0250342Y0155750D03*
X0352342Y0155750D03*
X0356342Y0155750D03*
X0385342Y0195750D03*
X0389342Y0195750D03*
X0393342Y0195750D03*
D12*
X0392092Y0195751D02*
X0390592Y0195751D01*
X0390592Y0195253D02*
X0392092Y0195253D01*
X0392092Y0195250D02*
X0392092Y0196250D01*
X0390592Y0196250D01*
X0390592Y0195250D01*
X0392092Y0195250D01*
X0392092Y0196250D02*
X0390592Y0196250D01*
X0388092Y0196250D02*
X0386592Y0196250D01*
X0386592Y0195250D01*
X0388092Y0195250D01*
X0388092Y0196250D01*
X0386592Y0196250D01*
X0386592Y0195751D02*
X0388092Y0195751D01*
X0388092Y0195253D02*
X0386592Y0195253D01*
X0290092Y0195253D02*
X0288592Y0195253D01*
X0288592Y0195250D02*
X0290092Y0195250D01*
X0290092Y0196250D01*
X0288592Y0196250D01*
X0288592Y0195250D01*
X0288592Y0195751D02*
X0290092Y0195751D01*
X0290092Y0196250D02*
X0288592Y0196250D01*
X0286092Y0196250D02*
X0284592Y0196250D01*
X0284592Y0195250D01*
X0286092Y0195250D01*
X0286092Y0196250D01*
X0284592Y0196250D01*
X0284592Y0195751D02*
X0286092Y0195751D01*
X0286092Y0195253D02*
X0284592Y0195253D01*
X0188092Y0195253D02*
X0186592Y0195253D01*
X0186592Y0195250D02*
X0188092Y0195250D01*
X0188092Y0196250D01*
X0186592Y0196250D01*
X0186592Y0195250D01*
X0186592Y0195751D02*
X0188092Y0195751D01*
X0188092Y0196250D02*
X0186592Y0196250D01*
X0184092Y0196250D02*
X0182592Y0196250D01*
X0182592Y0195250D01*
X0184092Y0195250D01*
X0184092Y0196250D01*
X0182592Y0196250D01*
X0182592Y0195751D02*
X0184092Y0195751D01*
X0184092Y0195253D02*
X0182592Y0195253D01*
X0086092Y0195253D02*
X0084592Y0195253D01*
X0084592Y0195250D02*
X0086092Y0195250D01*
X0086092Y0196250D01*
X0084592Y0196250D01*
X0084592Y0195250D01*
X0084592Y0195751D02*
X0086092Y0195751D01*
X0086092Y0196250D02*
X0084592Y0196250D01*
X0082092Y0196250D02*
X0080592Y0196250D01*
X0080592Y0195250D01*
X0082092Y0195250D01*
X0082092Y0196250D01*
X0080592Y0196250D01*
X0080592Y0195751D02*
X0082092Y0195751D01*
X0082092Y0195253D02*
X0080592Y0195253D01*
X0080592Y0094250D02*
X0080592Y0093250D01*
X0082092Y0093250D01*
X0082092Y0094250D01*
X0080592Y0094250D01*
X0080592Y0094055D02*
X0082092Y0094055D01*
X0082092Y0093556D02*
X0080592Y0093556D01*
X0084592Y0093556D02*
X0086092Y0093556D01*
X0086092Y0093250D02*
X0086092Y0094250D01*
X0084592Y0094250D01*
X0084592Y0093250D01*
X0086092Y0093250D01*
X0086092Y0094055D02*
X0084592Y0094055D01*
X0182592Y0094055D02*
X0184092Y0094055D01*
X0184092Y0094250D02*
X0184092Y0093250D01*
X0182592Y0093250D01*
X0182592Y0094250D01*
X0184092Y0094250D01*
X0184092Y0093556D02*
X0182592Y0093556D01*
X0186592Y0093556D02*
X0188092Y0093556D01*
X0188092Y0093250D02*
X0188092Y0094250D01*
X0186592Y0094250D01*
X0186592Y0093250D01*
X0188092Y0093250D01*
X0188092Y0094055D02*
X0186592Y0094055D01*
X0284592Y0094055D02*
X0286092Y0094055D01*
X0286092Y0094250D02*
X0286092Y0093250D01*
X0284592Y0093250D01*
X0284592Y0094250D01*
X0286092Y0094250D01*
X0286092Y0093556D02*
X0284592Y0093556D01*
X0288592Y0093556D02*
X0290092Y0093556D01*
X0290092Y0093250D02*
X0290092Y0094250D01*
X0288592Y0094250D01*
X0288592Y0093250D01*
X0290092Y0093250D01*
X0290092Y0094055D02*
X0288592Y0094055D01*
X0386592Y0094055D02*
X0388092Y0094055D01*
X0388092Y0094250D02*
X0388092Y0093250D01*
X0386592Y0093250D01*
X0386592Y0094250D01*
X0388092Y0094250D01*
X0388092Y0093556D02*
X0386592Y0093556D01*
X0390592Y0093556D02*
X0392092Y0093556D01*
X0392092Y0093250D02*
X0392092Y0094250D01*
X0390592Y0094250D01*
X0390592Y0093250D01*
X0392092Y0093250D01*
X0392092Y0094055D02*
X0390592Y0094055D01*
X0488592Y0094055D02*
X0490092Y0094055D01*
X0490092Y0094250D02*
X0490092Y0093250D01*
X0488592Y0093250D01*
X0488592Y0094250D01*
X0490092Y0094250D01*
X0490092Y0093556D02*
X0488592Y0093556D01*
X0492592Y0093556D02*
X0494092Y0093556D01*
X0494092Y0093250D02*
X0494092Y0094250D01*
X0492592Y0094250D01*
X0492592Y0093250D01*
X0494092Y0093250D01*
X0494092Y0094055D02*
X0492592Y0094055D01*
X0492592Y0195250D02*
X0494092Y0195250D01*
X0494092Y0196250D01*
X0492592Y0196250D01*
X0492592Y0195250D01*
X0492592Y0195253D02*
X0494092Y0195253D01*
X0494092Y0195751D02*
X0492592Y0195751D01*
X0492592Y0196250D02*
X0494092Y0196250D01*
X0490092Y0196250D02*
X0488592Y0196250D01*
X0488592Y0195250D01*
X0490092Y0195250D01*
X0490092Y0196250D01*
X0488592Y0196250D01*
X0488592Y0195751D02*
X0490092Y0195751D01*
X0490092Y0195253D02*
X0488592Y0195253D01*
X0488592Y0297250D02*
X0490092Y0297250D01*
X0490092Y0298250D01*
X0488592Y0298250D01*
X0488592Y0297250D01*
X0488592Y0297448D02*
X0490092Y0297448D01*
X0490092Y0297946D02*
X0488592Y0297946D01*
X0492592Y0297946D02*
X0494092Y0297946D01*
X0494092Y0298250D02*
X0494092Y0297250D01*
X0492592Y0297250D01*
X0492592Y0298250D01*
X0494092Y0298250D01*
X0494092Y0297448D02*
X0492592Y0297448D01*
X0392092Y0297448D02*
X0390592Y0297448D01*
X0390592Y0297250D02*
X0392092Y0297250D01*
X0392092Y0298250D01*
X0390592Y0298250D01*
X0390592Y0297250D01*
X0390592Y0297946D02*
X0392092Y0297946D01*
X0388092Y0297946D02*
X0386592Y0297946D01*
X0386592Y0298250D02*
X0386592Y0297250D01*
X0388092Y0297250D01*
X0388092Y0298250D01*
X0386592Y0298250D01*
X0386592Y0297448D02*
X0388092Y0297448D01*
X0290092Y0297448D02*
X0288592Y0297448D01*
X0288592Y0297250D02*
X0290092Y0297250D01*
X0290092Y0298250D01*
X0288592Y0298250D01*
X0288592Y0297250D01*
X0288592Y0297946D02*
X0290092Y0297946D01*
X0286092Y0297946D02*
X0284592Y0297946D01*
X0284592Y0298250D02*
X0284592Y0297250D01*
X0286092Y0297250D01*
X0286092Y0298250D01*
X0284592Y0298250D01*
X0284592Y0297448D02*
X0286092Y0297448D01*
X0188092Y0297448D02*
X0186592Y0297448D01*
X0186592Y0297250D02*
X0188092Y0297250D01*
X0188092Y0298250D01*
X0186592Y0298250D01*
X0186592Y0297250D01*
X0186592Y0297946D02*
X0188092Y0297946D01*
X0184092Y0297946D02*
X0182592Y0297946D01*
X0182592Y0298250D02*
X0182592Y0297250D01*
X0184092Y0297250D01*
X0184092Y0298250D01*
X0182592Y0298250D01*
X0182592Y0297448D02*
X0184092Y0297448D01*
X0086092Y0297448D02*
X0084592Y0297448D01*
X0084592Y0297250D02*
X0086092Y0297250D01*
X0086092Y0298250D01*
X0084592Y0298250D01*
X0084592Y0297250D01*
X0084592Y0297946D02*
X0086092Y0297946D01*
X0082092Y0297946D02*
X0080592Y0297946D01*
X0080592Y0298250D02*
X0080592Y0297250D01*
X0082092Y0297250D01*
X0082092Y0298250D01*
X0080592Y0298250D01*
X0080592Y0297448D02*
X0082092Y0297448D01*
X0082092Y0399250D02*
X0082092Y0400250D01*
X0080592Y0400250D01*
X0080592Y0399250D01*
X0082092Y0399250D01*
X0082092Y0399642D02*
X0080592Y0399642D01*
X0080592Y0400141D02*
X0082092Y0400141D01*
X0084592Y0400141D02*
X0086092Y0400141D01*
X0086092Y0400250D02*
X0086092Y0399250D01*
X0084592Y0399250D01*
X0084592Y0400250D01*
X0086092Y0400250D01*
X0086092Y0399642D02*
X0084592Y0399642D01*
X0182592Y0399642D02*
X0184092Y0399642D01*
X0184092Y0399250D02*
X0184092Y0400250D01*
X0182592Y0400250D01*
X0182592Y0399250D01*
X0184092Y0399250D01*
X0184092Y0400141D02*
X0182592Y0400141D01*
X0186592Y0400141D02*
X0188092Y0400141D01*
X0188092Y0400250D02*
X0188092Y0399250D01*
X0186592Y0399250D01*
X0186592Y0400250D01*
X0188092Y0400250D01*
X0188092Y0399642D02*
X0186592Y0399642D01*
X0284592Y0399642D02*
X0286092Y0399642D01*
X0286092Y0399250D02*
X0286092Y0400250D01*
X0284592Y0400250D01*
X0284592Y0399250D01*
X0286092Y0399250D01*
X0286092Y0400141D02*
X0284592Y0400141D01*
X0288592Y0400141D02*
X0290092Y0400141D01*
X0290092Y0400250D02*
X0290092Y0399250D01*
X0288592Y0399250D01*
X0288592Y0400250D01*
X0290092Y0400250D01*
X0290092Y0399642D02*
X0288592Y0399642D01*
X0386592Y0399642D02*
X0388092Y0399642D01*
X0388092Y0399250D02*
X0388092Y0400250D01*
X0386592Y0400250D01*
X0386592Y0399250D01*
X0388092Y0399250D01*
X0388092Y0400141D02*
X0386592Y0400141D01*
X0390592Y0400141D02*
X0392092Y0400141D01*
X0392092Y0400250D02*
X0392092Y0399250D01*
X0390592Y0399250D01*
X0390592Y0400250D01*
X0392092Y0400250D01*
X0392092Y0399642D02*
X0390592Y0399642D01*
X0488592Y0399642D02*
X0490092Y0399642D01*
X0490092Y0399250D02*
X0490092Y0400250D01*
X0488592Y0400250D01*
X0488592Y0399250D01*
X0490092Y0399250D01*
X0490092Y0400141D02*
X0488592Y0400141D01*
X0492592Y0400141D02*
X0494092Y0400141D01*
X0494092Y0400250D02*
X0494092Y0399250D01*
X0492592Y0399250D01*
X0492592Y0400250D01*
X0494092Y0400250D01*
X0494092Y0399642D02*
X0492592Y0399642D01*
X0492592Y0501250D02*
X0494092Y0501250D01*
X0494092Y0502250D01*
X0492592Y0502250D01*
X0492592Y0501250D01*
X0492592Y0501339D02*
X0494092Y0501339D01*
X0494092Y0501837D02*
X0492592Y0501837D01*
X0490092Y0501837D02*
X0488592Y0501837D01*
X0488592Y0502250D02*
X0488592Y0501250D01*
X0490092Y0501250D01*
X0490092Y0502250D01*
X0488592Y0502250D01*
X0488592Y0501339D02*
X0490092Y0501339D01*
X0392092Y0501339D02*
X0390592Y0501339D01*
X0390592Y0501250D02*
X0392092Y0501250D01*
X0392092Y0502250D01*
X0390592Y0502250D01*
X0390592Y0501250D01*
X0390592Y0501837D02*
X0392092Y0501837D01*
X0388092Y0501837D02*
X0386592Y0501837D01*
X0386592Y0502250D02*
X0386592Y0501250D01*
X0388092Y0501250D01*
X0388092Y0502250D01*
X0386592Y0502250D01*
X0386592Y0501339D02*
X0388092Y0501339D01*
X0290092Y0501339D02*
X0288592Y0501339D01*
X0288592Y0501250D02*
X0290092Y0501250D01*
X0290092Y0502250D01*
X0288592Y0502250D01*
X0288592Y0501250D01*
X0288592Y0501837D02*
X0290092Y0501837D01*
X0286092Y0501837D02*
X0284592Y0501837D01*
X0284592Y0502250D02*
X0284592Y0501250D01*
X0286092Y0501250D01*
X0286092Y0502250D01*
X0284592Y0502250D01*
X0284592Y0501339D02*
X0286092Y0501339D01*
X0188092Y0501339D02*
X0186592Y0501339D01*
X0186592Y0501250D02*
X0188092Y0501250D01*
X0188092Y0502250D01*
X0186592Y0502250D01*
X0186592Y0501250D01*
X0186592Y0501837D02*
X0188092Y0501837D01*
X0184092Y0501837D02*
X0182592Y0501837D01*
X0182592Y0502250D02*
X0182592Y0501250D01*
X0184092Y0501250D01*
X0184092Y0502250D01*
X0182592Y0502250D01*
X0182592Y0501339D02*
X0184092Y0501339D01*
X0086092Y0501339D02*
X0084592Y0501339D01*
X0084592Y0501250D02*
X0086092Y0501250D01*
X0086092Y0502250D01*
X0084592Y0502250D01*
X0084592Y0501250D01*
X0084592Y0501837D02*
X0086092Y0501837D01*
X0082092Y0501837D02*
X0080592Y0501837D01*
X0080592Y0502250D02*
X0080592Y0501250D01*
X0082092Y0501250D01*
X0082092Y0502250D01*
X0080592Y0502250D01*
X0080592Y0501339D02*
X0082092Y0501339D01*
D13*
X0078342Y0441750D03*
X0088342Y0441750D03*
X0098342Y0441750D03*
X0108342Y0441750D03*
X0068342Y0441750D03*
X0058342Y0441750D03*
X0160342Y0441750D03*
X0170342Y0441750D03*
X0180342Y0441750D03*
X0190342Y0441750D03*
X0200342Y0441750D03*
X0210342Y0441750D03*
X0262342Y0441750D03*
X0272342Y0441750D03*
X0282342Y0441750D03*
X0292342Y0441750D03*
X0302342Y0441750D03*
X0312342Y0441750D03*
X0364342Y0441750D03*
X0374342Y0441750D03*
X0384342Y0441750D03*
X0394342Y0441750D03*
X0404342Y0441750D03*
X0414342Y0441750D03*
X0466342Y0441750D03*
X0476342Y0441750D03*
X0486342Y0441750D03*
X0496342Y0441750D03*
X0506342Y0441750D03*
X0516342Y0441750D03*
X0516342Y0339750D03*
X0506342Y0339750D03*
X0496342Y0339750D03*
X0486342Y0339750D03*
X0476342Y0339750D03*
X0466342Y0339750D03*
X0414342Y0339750D03*
X0404342Y0339750D03*
X0394342Y0339750D03*
X0384342Y0339750D03*
X0374342Y0339750D03*
X0364342Y0339750D03*
X0312342Y0339750D03*
X0302342Y0339750D03*
X0292342Y0339750D03*
X0282342Y0339750D03*
X0272342Y0339750D03*
X0262342Y0339750D03*
X0210342Y0339750D03*
X0200342Y0339750D03*
X0190342Y0339750D03*
X0180342Y0339750D03*
X0170342Y0339750D03*
X0160342Y0339750D03*
X0108342Y0339750D03*
X0098342Y0339750D03*
X0088342Y0339750D03*
X0078342Y0339750D03*
X0068342Y0339750D03*
X0058342Y0339750D03*
X0058342Y0237750D03*
X0068342Y0237750D03*
X0078342Y0237750D03*
X0088342Y0237750D03*
X0098342Y0237750D03*
X0108342Y0237750D03*
X0160342Y0237750D03*
X0170342Y0237750D03*
X0180342Y0237750D03*
X0190342Y0237750D03*
X0200342Y0237750D03*
X0210342Y0237750D03*
X0262342Y0237750D03*
X0272342Y0237750D03*
X0282342Y0237750D03*
X0292342Y0237750D03*
X0302342Y0237750D03*
X0312342Y0237750D03*
X0364342Y0237750D03*
X0374342Y0237750D03*
X0384342Y0237750D03*
X0394342Y0237750D03*
X0404342Y0237750D03*
X0414342Y0237750D03*
X0466342Y0237750D03*
X0476342Y0237750D03*
X0486342Y0237750D03*
X0496342Y0237750D03*
X0506342Y0237750D03*
X0516342Y0237750D03*
X0516342Y0135750D03*
X0506342Y0135750D03*
X0496342Y0135750D03*
X0486342Y0135750D03*
X0476342Y0135750D03*
X0466342Y0135750D03*
X0414342Y0135750D03*
X0404342Y0135750D03*
X0394342Y0135750D03*
X0384342Y0135750D03*
X0374342Y0135750D03*
X0364342Y0135750D03*
X0312342Y0135750D03*
X0302342Y0135750D03*
X0292342Y0135750D03*
X0282342Y0135750D03*
X0272342Y0135750D03*
X0262342Y0135750D03*
X0210342Y0135750D03*
X0200342Y0135750D03*
X0190342Y0135750D03*
X0180342Y0135750D03*
X0170342Y0135750D03*
X0160342Y0135750D03*
X0108342Y0135750D03*
X0098342Y0135750D03*
X0088342Y0135750D03*
X0078342Y0135750D03*
X0068342Y0135750D03*
X0058342Y0135750D03*
X0058342Y0033750D03*
X0068342Y0033750D03*
X0078342Y0033750D03*
X0088342Y0033750D03*
X0098342Y0033750D03*
X0108342Y0033750D03*
X0160342Y0033750D03*
X0170342Y0033750D03*
X0180342Y0033750D03*
X0190342Y0033750D03*
X0200342Y0033750D03*
X0210342Y0033750D03*
X0262342Y0033750D03*
X0272342Y0033750D03*
X0282342Y0033750D03*
X0292342Y0033750D03*
X0302342Y0033750D03*
X0312342Y0033750D03*
X0364342Y0033750D03*
X0374342Y0033750D03*
X0384342Y0033750D03*
X0394342Y0033750D03*
X0404342Y0033750D03*
X0414342Y0033750D03*
X0466342Y0033750D03*
X0476342Y0033750D03*
X0486342Y0033750D03*
X0496342Y0033750D03*
X0506342Y0033750D03*
X0516342Y0033750D03*
D14*
X0537842Y0032250D03*
X0444342Y0125750D03*
X0435842Y0134250D03*
X0342342Y0125750D03*
X0333842Y0134250D03*
X0240342Y0125750D03*
X0231842Y0134250D03*
X0138342Y0125750D03*
X0129842Y0134250D03*
X0138342Y0227750D03*
X0129842Y0236250D03*
X0138342Y0329750D03*
X0129842Y0338250D03*
X0036342Y0329750D03*
X0036342Y0227750D03*
X0036342Y0125750D03*
X0129842Y0032250D03*
X0231842Y0032250D03*
X0333842Y0032250D03*
X0435842Y0032250D03*
X0537842Y0134250D03*
X0444342Y0227750D03*
X0435842Y0236250D03*
X0342342Y0227750D03*
X0333842Y0236250D03*
X0240342Y0227750D03*
X0231842Y0236250D03*
X0240342Y0329750D03*
X0231842Y0338250D03*
X0240342Y0431750D03*
X0231842Y0440250D03*
X0138342Y0431750D03*
X0129842Y0440250D03*
X0036342Y0431750D03*
X0036342Y0533750D03*
X0138342Y0533750D03*
X0240342Y0533750D03*
X0342342Y0533750D03*
X0444342Y0533750D03*
X0435842Y0440250D03*
X0444342Y0431750D03*
X0537842Y0440250D03*
X0537842Y0338250D03*
X0444342Y0329750D03*
X0435842Y0338250D03*
X0342342Y0329750D03*
X0333842Y0338250D03*
X0342342Y0431750D03*
X0333842Y0440250D03*
X0537842Y0236250D03*
M02*
