%
M48
M72
T01C0.0120
T02C0.0400
T03C0.1300
%
T01
X4834Y4125
X5834Y6375
X6834Y7875
X6834Y8375
X7334Y8625
X8334Y7875
X8334Y6875
X8334Y6375
X7334Y4375
X10334Y6875
X11834Y5875
X10534Y8625
X10834Y9375
X9669Y9990
X7334Y9875
X7000Y9840
X5334Y9875
X5934Y8275
X4684Y7875
X4834Y14325
X5834Y16575
X6834Y18075
X6834Y18575
X7334Y18825
X7334Y20075
X7000Y20040
X5334Y20075
X5934Y18475
X4684Y18075
X8334Y18075
X8334Y17075
X8334Y16575
X7334Y14575
X10334Y17075
X11834Y16075
X10534Y18825
X10834Y19575
X9669Y20190
X7334Y24775
X8334Y26775
X8334Y27275
X8334Y28275
X7334Y29025
X6834Y28775
X6834Y28275
X5934Y28675
X4684Y28275
X5834Y26775
X4834Y24525
X7000Y30240
X7334Y30275
X5334Y30275
X9669Y30390
X10834Y29775
X10534Y29025
X10334Y27275
X11834Y26275
X14884Y28275
X16134Y28675
X17034Y28775
X17034Y28275
X17534Y29025
X18534Y28275
X18534Y27275
X18534Y26775
X20534Y27275
X20734Y29025
X21034Y29775
X19869Y30390
X17534Y30275
X17200Y30240
X15534Y30275
X16034Y26775
X15034Y24525
X17534Y24775
X17534Y20075
X17200Y20040
X17534Y18825
X17034Y18575
X17034Y18075
X16134Y18475
X14884Y18075
X16034Y16575
X17534Y14575
X18534Y16575
X18534Y17075
X18534Y18075
X20534Y17075
X20734Y18825
X21034Y19575
X19869Y20190
X15534Y20075
X15034Y14325
X15534Y9875
X17200Y9840
X17534Y9875
X17534Y8625
X17034Y8375
X17034Y7875
X16134Y8275
X14884Y7875
X16034Y6375
X17534Y4375
X18534Y6375
X18534Y6875
X18534Y7875
X20534Y6875
X20734Y8625
X21034Y9375
X19869Y9990
X22034Y5875
X25084Y7875
X26334Y8275
X27234Y8375
X27234Y7875
X27734Y8625
X28734Y7875
X28734Y6875
X28734Y6375
X30734Y6875
X30934Y8625
X31234Y9375
X30069Y9990
X27734Y9875
X27400Y9840
X25734Y9875
X26234Y6375
X27734Y4375
X25234Y4125
X32234Y5875
X35284Y7875
X36534Y8275
X37434Y8375
X37434Y7875
X37934Y8625
X37934Y9875
X37600Y9840
X35934Y9875
X38934Y7875
X38934Y6875
X38934Y6375
X40934Y6875
X42434Y5875
X41134Y8625
X41434Y9375
X40269Y9990
X36434Y6375
X37934Y4375
X35434Y4125
X45634Y4125
X46634Y6375
X47634Y7875
X47634Y8375
X48134Y8625
X48134Y9875
X47800Y9840
X46134Y9875
X46734Y8275
X45484Y7875
X49134Y7875
X49134Y6875
X49134Y6375
X51134Y6875
X52634Y5875
X51334Y8625
X51634Y9375
X50469Y9990
X48134Y14575
X49134Y16575
X49134Y17075
X49134Y18075
X48134Y18825
X47634Y18575
X47634Y18075
X46734Y18475
X45484Y18075
X46634Y16575
X45634Y14325
X42434Y16075
X40934Y17075
X41134Y18825
X41434Y19575
X40269Y20190
X37934Y20075
X37600Y20040
X37934Y18825
X37434Y18575
X37434Y18075
X36534Y18475
X35284Y18075
X36434Y16575
X37934Y14575
X38934Y16575
X38934Y17075
X38934Y18075
X35934Y20075
X35434Y24525
X36434Y26775
X37434Y28275
X37434Y28775
X37934Y29025
X38934Y28275
X38934Y27275
X38934Y26775
X40934Y27275
X41134Y29025
X41434Y29775
X40269Y30390
X37934Y30275
X37600Y30240
X36534Y28675
X35284Y28275
X35934Y30275
X35434Y34725
X36434Y36975
X37434Y38475
X37434Y38975
X37934Y39225
X37934Y40475
X37600Y40440
X36534Y38875
X35284Y38475
X35934Y40475
X38934Y38475
X38934Y37475
X38934Y36975
X40934Y37475
X42434Y36475
X41134Y39225
X41434Y39975
X40269Y40590
X37934Y45175
X38934Y47175
X38934Y47675
X38934Y48675
X37934Y49425
X37434Y49175
X37434Y48675
X36534Y49075
X35284Y48675
X36434Y47175
X35434Y44925
X32234Y46675
X30734Y47675
X30934Y49425
X31234Y50175
X30069Y50790
X27734Y50675
X27400Y50640
X27734Y49425
X27234Y49175
X27234Y48675
X26334Y49075
X25084Y48675
X26234Y47175
X25234Y44925
X27734Y45175
X28734Y47175
X28734Y47675
X28734Y48675
X25734Y50675
X22034Y46675
X20534Y47675
X20734Y49425
X21034Y50175
X19869Y50790
X17534Y50675
X17200Y50640
X17534Y49425
X17034Y49175
X17034Y48675
X16134Y49075
X14884Y48675
X16034Y47175
X15034Y44925
X17534Y45175
X18534Y47175
X18534Y47675
X18534Y48675
X15534Y50675
X11834Y46675
X10334Y47675
X10534Y49425
X10834Y50175
X9669Y50790
X8334Y48675
X7334Y49425
X6834Y49175
X6834Y48675
X5934Y49075
X4684Y48675
X5834Y47175
X4834Y44925
X7334Y45175
X8334Y47175
X8334Y47675
X7334Y50675
X7000Y50640
X5334Y50675
X9669Y40590
X10834Y39975
X10534Y39225
X10334Y37475
X11834Y36475
X14884Y38475
X16134Y38875
X17034Y38975
X17034Y38475
X17534Y39225
X18534Y38475
X18534Y37475
X18534Y36975
X20534Y37475
X20734Y39225
X21034Y39975
X19869Y40590
X17534Y40475
X17200Y40440
X15534Y40475
X16034Y36975
X15034Y34725
X17534Y34975
X22034Y36475
X25084Y38475
X26334Y38875
X27234Y38975
X27234Y38475
X27734Y39225
X28734Y38475
X28734Y37475
X28734Y36975
X30734Y37475
X30934Y39225
X31234Y39975
X30069Y40590
X27734Y40475
X27400Y40440
X25734Y40475
X26234Y36975
X25234Y34725
X27734Y34975
X27734Y30275
X27400Y30240
X27734Y29025
X27234Y28775
X27234Y28275
X26334Y28675
X25084Y28275
X26234Y26775
X25234Y24525
X27734Y24775
X28734Y26775
X28734Y27275
X28734Y28275
X30734Y27275
X30934Y29025
X31234Y29775
X30069Y30390
X25734Y30275
X22034Y26275
X25734Y20075
X27400Y20040
X27734Y20075
X27734Y18825
X27234Y18575
X27234Y18075
X26334Y18475
X25084Y18075
X26234Y16575
X27734Y14575
X28734Y16575
X28734Y17075
X28734Y18075
X30734Y17075
X30934Y18825
X31234Y19575
X30069Y20190
X32234Y16075
X35434Y14325
X25234Y14325
X22034Y16075
X32234Y26275
X37934Y24775
X42434Y26275
X45484Y28275
X46734Y28675
X47634Y28775
X47634Y28275
X48134Y29025
X49134Y28275
X49134Y27275
X49134Y26775
X51134Y27275
X51334Y29025
X51634Y29775
X50469Y30390
X48134Y30275
X47800Y30240
X46134Y30275
X46634Y26775
X45634Y24525
X48134Y24775
X48134Y20075
X47800Y20040
X46134Y20075
X50469Y20190
X51634Y19575
X51334Y18825
X51134Y17075
X52634Y16075
X52634Y26275
X48134Y34975
X49134Y36975
X49134Y37475
X49134Y38475
X48134Y39225
X47634Y38975
X47634Y38475
X46734Y38875
X45484Y38475
X46634Y36975
X45634Y34725
X46134Y40475
X47800Y40440
X48134Y40475
X50469Y40590
X51634Y39975
X51334Y39225
X51134Y37475
X52634Y36475
X48134Y45175
X49134Y47175
X49134Y47675
X49134Y48675
X48134Y49425
X47634Y49175
X47634Y48675
X46734Y49075
X45484Y48675
X46634Y47175
X45634Y44925
X42434Y46675
X40934Y47675
X41134Y49425
X41434Y50175
X40269Y50790
X37934Y50675
X37600Y50640
X35934Y50675
X46134Y50675
X47800Y50640
X48134Y50675
X50469Y50790
X51634Y50175
X51334Y49425
X51134Y47675
X52634Y46675
X37934Y34975
X32234Y36475
X8334Y36975
X8334Y37475
X8334Y38475
X7334Y39225
X6834Y38975
X6834Y38475
X5934Y38875
X4684Y38475
X5834Y36975
X4834Y34725
X7334Y34975
X7000Y40440
X7334Y40475
X5334Y40475
X15034Y4125
X48134Y4375
T02
X47634Y3375
X46634Y3375
X48634Y3375
X49634Y3375
X50634Y3375
X51634Y3375
X41434Y3375
X40434Y3375
X39434Y3375
X38434Y3375
X37434Y3375
X36434Y3375
X31234Y3375
X30234Y3375
X29234Y3375
X28234Y3375
X27234Y3375
X26234Y3375
X21034Y3375
X20034Y3375
X19034Y3375
X18034Y3375
X17034Y3375
X16034Y3375
X10834Y3375
X9834Y3375
X8834Y3375
X7834Y3375
X6834Y3375
X5834Y3375
X5834Y13575
X6834Y13575
X7834Y13575
X8834Y13575
X9834Y13575
X10834Y13575
X16034Y13575
X17034Y13575
X18034Y13575
X19034Y13575
X20034Y13575
X21034Y13575
X26234Y13575
X27234Y13575
X28234Y13575
X29234Y13575
X30234Y13575
X31234Y13575
X36434Y13575
X37434Y13575
X38434Y13575
X39434Y13575
X40434Y13575
X41434Y13575
X46634Y13575
X47634Y13575
X48634Y13575
X49634Y13575
X50634Y13575
X51634Y13575
X51634Y23775
X50634Y23775
X49634Y23775
X48634Y23775
X47634Y23775
X46634Y23775
X41434Y23775
X40434Y23775
X39434Y23775
X38434Y23775
X37434Y23775
X36434Y23775
X31234Y23775
X30234Y23775
X29234Y23775
X28234Y23775
X27234Y23775
X26234Y23775
X21034Y23775
X20034Y23775
X19034Y23775
X18034Y23775
X17034Y23775
X16034Y23775
X10834Y23775
X9834Y23775
X8834Y23775
X7834Y23775
X6834Y23775
X5834Y23775
X5834Y33975
X6834Y33975
X7834Y33975
X8834Y33975
X9834Y33975
X10834Y33975
X16034Y33975
X17034Y33975
X18034Y33975
X19034Y33975
X20034Y33975
X21034Y33975
X26234Y33975
X27234Y33975
X28234Y33975
X29234Y33975
X30234Y33975
X31234Y33975
X36434Y33975
X37434Y33975
X38434Y33975
X39434Y33975
X40434Y33975
X41434Y33975
X46634Y33975
X47634Y33975
X48634Y33975
X49634Y33975
X50634Y33975
X51634Y33975
X51634Y44175
X50634Y44175
X49634Y44175
X48634Y44175
X47634Y44175
X46634Y44175
X41434Y44175
X40434Y44175
X39434Y44175
X38434Y44175
X37434Y44175
X36434Y44175
X31234Y44175
X30234Y44175
X29234Y44175
X28234Y44175
X27234Y44175
X26234Y44175
X21034Y44175
X20034Y44175
X19034Y44175
X18034Y44175
X17034Y44175
X16034Y44175
X10834Y44175
X9834Y44175
X8834Y44175
X7834Y44175
X6834Y44175
X5834Y44175
T03
X4334Y42475
X12334Y42475
X14534Y42475
X22534Y42475
X24734Y42475
X32734Y42475
X34934Y42475
X42934Y42475
X45134Y42475
X53134Y42475
X53134Y32275
X45134Y32275
X42934Y32275
X34934Y32275
X32734Y32275
X24734Y32275
X22534Y32275
X14534Y32275
X12334Y32275
X4334Y32275
X4334Y22075
X12334Y22075
X14534Y22075
X22534Y22075
X24734Y22075
X32734Y22075
X34934Y22075
X42934Y22075
X45134Y22075
X53134Y22075
X53134Y11875
X45134Y11875
X42934Y11875
X34934Y11875
X32734Y11875
X24734Y11875
X22534Y11875
X14534Y11875
X12334Y11875
X4334Y11875
X4334Y52675
X12334Y52675
X14534Y52675
X22534Y52675
X24734Y52675
X32734Y52675
X34934Y52675
X42934Y52675
X45134Y52675
X53134Y52675
M30
